Coordinates
version=1
nRows=23
nColumns=38
inDegrees=no

Units are S.I. units (second, meters, Newtons, ...)
If the header above contains a line with 'inDegrees', this indicates whether rotational values are in degrees (yes) or radians (no).

endheader
time	pelvis_tilt	pelvis_list	pelvis_rotation	pelvis_tx	pelvis_ty	pelvis_tz	hip_flexion_r	hip_adduction_r	hip_rotation_r	knee_angle_r	ankle_angle_r	subtalar_angle_r	mtp_angle_r	hip_flexion_l	hip_adduction_l	hip_rotation_l	knee_angle_l	ankle_angle_l	subtalar_angle_l	mtp_angle_l	lumbar_extension	lumbar_bending	lumbar_rotation	arm_flex_r	arm_add_r	arm_rot_r	elbow_flex_r	pro_sup_r	wrist_flex_r	wrist_dev_r	arm_flex_l	arm_add_l	arm_rot_l	elbow_flex_l	pro_sup_l	wrist_flex_l	wrist_dev_l
0	2.42447	1.38323	-0.820654	0.792764	-0.622207	0.937616	0.41473	0.0185674	-0.354362	0.520122	-0.0647516	0	0	-0.320915	-0.241084	-0.247235	0.740825	0.106163	0	0	-0.433887	0.252484	-0.0419567	0.413102	-0.427503	0.0850389	1.21816	0.955675	0	0	0.299287	-0.290827	-0.0754227	1.18007	1.05451	0	0
0.01	2.43924	1.38781	-0.827457	0.795538	-0.610734	0.938741	0.407797	0.0162988	-0.350672	0.523541	-0.0854274	0	0	-0.28233	-0.247359	-0.218391	0.813825	0.0684215	0	0	-0.437867	0.247611	-0.0480378	0.415339	-0.422119	0.0813575	1.22033	0.952227	0	0	0.306038	-0.297356	-0.0703107	1.17944	1.0509	0	0
0.02	2.46084	1.39141	-0.83978	0.798274	-0.598856	0.940106	0.397003	0.014065	-0.350475	0.525457	-0.0950044	0	0	-0.247763	-0.250526	-0.188778	0.876602	0.0340692	0	0	-0.441298	0.242207	-0.0545901	0.413794	-0.41666	0.0737978	1.22234	0.952008	0	0	0.311593	-0.303301	-0.0642297	1.17942	1.04517	0	0
0.03	2.4963	1.39378	-0.866852	0.800953	-0.587034	0.941904	0.383108	0.0125226	-0.347035	0.527457	-0.0957994	0	0	-0.21835	-0.248905	-0.159782	0.930782	0.013745	0	0	-0.447113	0.234972	-0.0600357	0.411383	-0.411676	0.064854	1.22351	0.957518	0	0	0.317309	-0.308057	-0.0588574	1.1807	1.03761	0	0
0.04	2.54151	1.39531	-0.906449	0.803585	-0.575432	0.94424	0.368771	0.012156	-0.336849	0.532153	-0.0887169	0	0	-0.193012	-0.242652	-0.133109	0.979219	0.0177887	0	0	-0.455309	0.22596	-0.063481	0.410123	-0.40734	0.0576061	1.22354	0.961329	0	0	0.322675	-0.311868	-0.0553448	1.18352	1.03063	0	0
0.05	2.59226	1.39614	-0.955416	0.806127	-0.564045	0.94716	0.354928	0.0124057	-0.320887	0.540093	-0.0753935	0	0	-0.171208	-0.232375	-0.110701	1.02145	0.0392397	0	0	-0.465595	0.215628	-0.0642736	0.411022	-0.404135	0.0535415	1.2223	0.960129	0	0	0.327799	-0.31515	-0.0531723	1.18688	1.02657	0	0
0.06	2.64308	1.39599	-1.00903	0.808625	-0.552691	0.950652	0.3399	0.0134451	-0.302906	0.546315	-0.0626292	0	0	-0.153155	-0.219613	-0.0945164	1.05503	0.0652086	0	0	-0.477255	0.204667	-0.0616136	0.41398	-0.402314	0.0526104	1.2196	0.954966	0	0	0.332387	-0.317814	-0.0509935	1.19011	1.02501	0	0
0.07	2.69097	1.39468	-1.06348	0.811111	-0.541195	0.95462	0.322067	0.0146925	-0.287319	0.547821	-0.0530123	0	0	-0.138493	-0.205631	-0.0834483	1.07963	0.0892038	0	0	-0.489347	0.193653	-0.0563085	0.417975	-0.401678	0.0534869	1.21508	0.953277	0	0	0.336619	-0.319306	-0.0491395	1.1913	1.02518	0	0
0.08	2.73812	1.39234	-1.11899	0.81355	-0.529509	0.958864	0.301206	0.0149057	-0.275356	0.545107	-0.0451384	0	0	-0.126067	-0.190884	-0.0752673	1.09699	0.108185	0	0	-0.501107	0.182551	-0.0498746	0.421598	-0.401892	0.0548497	1.20961	0.956322	0	0	0.340423	-0.319611	-0.0477491	1.18982	1.02729	0	0
0.09	2.78375	1.38947	-1.17281	0.815883	-0.517638	0.963125	0.278475	0.013884	-0.266381	0.539823	-0.037147	0	0	-0.114062	-0.17592	-0.0676338	1.10939	0.123216	0	0	-0.511626	0.171848	-0.0435646	0.423749	-0.402186	0.05547	1.20486	0.95991	0	0	0.343408	-0.318948	-0.0468856	1.18645	1.03064	0	0
0.1	2.82648	1.38633	-1.22284	0.81813	-0.505646	0.967238	0.254923	0.0120843	-0.259499	0.533125	-0.0288797	0	0	-0.101367	-0.161821	-0.0608024	1.11798	0.133701	0	0	-0.520732	0.161894	-0.038424	0.424538	-0.401709	0.0551763	1.20151	0.962151	0	0	0.344939	-0.317347	-0.0475359	1.18274	1.03286	0	0
0.11	2.86427	1.38311	-1.2672	0.820333	-0.493597	0.971093	0.231396	0.0103655	-0.253838	0.525744	-0.0204598	0	0	-0.0876126	-0.149584	-0.0557919	1.12338	0.141073	0	0	-0.528478	0.152805	-0.033642	0.423416	-0.400331	0.052375	1.20022	0.964343	0	0	0.345231	-0.315148	-0.0492169	1.17989	1.03411	0	0
0.12	2.89765	1.38065	-1.30667	0.82248	-0.48156	0.974599	0.209201	0.0087542	-0.248728	0.51846	-0.0116105	0	0	-0.0722111	-0.138904	-0.0528783	1.12535	0.14625	0	0	-0.534253	0.144209	-0.0289687	0.420396	-0.398333	0.0470508	1.20099	0.966674	0	0	0.3445	-0.312668	-0.0515002	1.17803	1.03551	0	0
0.13	2.93034	1.37764	-1.3449	0.824553	-0.469574	0.977903	0.186231	0.00702816	-0.244546	0.510203	-0.00278092	0	0	-0.0572662	-0.128971	-0.0512672	1.12313	0.150616	0	0	-0.539879	0.135851	-0.0252022	0.416787	-0.395766	0.0406054	1.20319	0.970186	0	0	0.34315	-0.31048	-0.0544339	1.17718	1.03752	0	0
0.14	2.9621	1.37431	-1.38212	0.826602	-0.457661	0.980992	0.163043	0.00509628	-0.240751	0.501394	0.00566242	0	0	-0.042834	-0.119871	-0.0513672	1.11683	0.155574	0	0	-0.545291	0.12728	-0.0219389	0.413503	-0.393009	0.0343168	1.20542	0.974158	0	0	0.341357	-0.309329	-0.0571369	1.17721	1.03998	0	0
0.15	2.99098	1.37081	-1.41695	0.828657	-0.445779	0.983834	0.140231	0.00315162	-0.237169	0.492785	0.013595	0	0	-0.0286519	-0.112028	-0.0539256	1.10693	0.161552	0	0	-0.550172	0.118584	-0.0186475	0.411073	-0.39067	0.0295534	1.20691	0.978341	0	0	0.339227	-0.30909	-0.0594114	1.17796	1.04179	0	0
0.16	3.01578	1.36704	-1.44825	0.830676	-0.433889	0.986457	0.117669	0.00144381	-0.233349	0.484463	0.0212711	0	0	-0.0149846	-0.105077	-0.0579446	1.09367	0.16762	0	0	-0.55451	0.110215	-0.0155942	0.410009	-0.389081	0.0277536	1.20737	0.982227	0	0	0.336387	-0.309415	-0.0622613	1.17933	1.0433	0	0
0.17	3.03619	1.36264	-1.47577	0.832663	-0.421975	0.988943	0.0948757	0.000151613	-0.228767	0.4765	0.0289429	0	0	-0.0024909	-0.0994469	-0.0638072	1.07689	0.174524	0	0	-0.558956	0.102261	-0.0117399	0.409062	-0.388893	0.0278501	1.20827	0.985562	0	0	0.333513	-0.309944	-0.0642294	1.1811	1.0442	0	0
0.18	3.05257	1.35762	-1.49967	0.834573	-0.410057	0.991315	0.0718309	-0.00093759	-0.223668	0.469013	0.0364954	0	0	0.00876412	-0.0953031	-0.0711899	1.05691	0.182819	0	0	-0.563629	0.0949883	-0.00777221	0.408915	-0.389302	0.0297104	1.20887	0.988335	0	0	0.330212	-0.310661	-0.0660402	1.18337	1.04477	0	0
0.19	3.06479	1.35232	-1.51941	0.836357	-0.398183	0.993533	0.0490671	-0.00197312	-0.218822	0.462291	0.0439477	0	0	0.0193304	-0.0923695	-0.0791438	1.03379	0.189514	0	0	-0.568295	0.0886563	-0.00360465	0.409142	-0.390055	0.0320888	1.20951	0.990192	0	0	0.326739	-0.311222	-0.0679775	1.18593	1.04502	0	0
0.2	3.07441	1.34714	-1.53645	0.838033	-0.386371	0.995558	0.0270633	-0.00326092	-0.214263	0.456488	0.0510591	0	0	0.0296302	-0.0901516	-0.0875936	1.00782	0.193858	0	0	-0.572883	0.0829345	0.00130556	0.408628	-0.391193	0.0333095	1.21141	0.991434	0	0	0.324002	-0.310988	-0.0696645	1.18806	1.0452	0	0
0.21	3.08181	1.34221	-1.55144	0.839648	-0.374619	0.997388	0.00584558	-0.00469175	-0.210028	0.451403	0.0578862	0	0	0.039675	-0.0888773	-0.0976093	0.97891	0.195982	0	0	-0.577171	0.0776716	0.00642187	0.408273	-0.392018	0.0340165	1.21349	0.992091	0	0	0.321247	-0.310424	-0.0716941	1.19011	1.04542	0	0
0.22	3.08803	1.33768	-1.56534	0.841201	-0.362943	0.999027	-0.014458	-0.00637948	-0.206252	0.446986	0.064352	0	0	0.0494599	-0.0883275	-0.109096	0.947439	0.196956	0	0	-0.581001	0.0725852	0.011742	0.408021	-0.392754	0.0345355	1.21551	0.992191	0	0	0.318584	-0.309687	-0.073782	1.19199	1.04583	0	0
